<svg xmlns="http://www.w3.org/2000/svg" viewBox="0 0 300 150" role="img" aria-label="SeeTraceAct thumbnail">
  <rect width="300" height="150" rx="12" fill="#f7f8fb"/>
  <rect x="14" y="16" width="84" height="54" rx="6" fill="#ffffff" stroke="#cbd5e1"/>
  <rect x="108" y="16" width="84" height="54" rx="6" fill="#ffffff" stroke="#cbd5e1"/>
  <rect x="202" y="16" width="84" height="54" rx="6" fill="#ffffff" stroke="#cbd5e1"/>
  <rect x="14" y="82" width="84" height="54" rx="6" fill="#ffffff" stroke="#cbd5e1"/>
  <rect x="108" y="82" width="84" height="54" rx="6" fill="#ffffff" stroke="#cbd5e1"/>
  <rect x="202" y="82" width="84" height="54" rx="6" fill="#ffffff" stroke="#cbd5e1"/>
  <path d="M28 56c14-24 32-27 49-11" fill="none" stroke="#2563eb" stroke-width="4" stroke-linecap="round"/>
  <path d="M122 50c16-20 35-22 55-4" fill="none" stroke="#16a34a" stroke-width="4" stroke-linecap="round"/>
  <path d="M218 52c12-20 30-27 53-12" fill="none" stroke="#f97316" stroke-width="4" stroke-linecap="round"/>
  <path d="M30 119c16-21 34-25 52-9" fill="none" stroke="#7c3aed" stroke-width="4" stroke-linecap="round"/>
  <path d="M126 118c14-20 33-23 51-8" fill="none" stroke="#0891b2" stroke-width="4" stroke-linecap="round"/>
  <path d="M218 116c17-23 36-24 55-6" fill="none" stroke="#dc2626" stroke-width="4" stroke-linecap="round"/>
  <circle cx="77" cy="45" r="5" fill="#2563eb"/>
  <circle cx="177" cy="46" r="5" fill="#16a34a"/>
  <circle cx="271" cy="40" r="5" fill="#f97316"/>
  <circle cx="82" cy="110" r="5" fill="#7c3aed"/>
  <circle cx="177" cy="110" r="5" fill="#0891b2"/>
  <circle cx="273" cy="110" r="5" fill="#dc2626"/>
</svg>
